<svg xmlns="http://www.w3.org/2000/svg" width="30" height="30" viewBox="0 0 30 30">
    <g fill="none" fill-rule="evenodd">
        <g>
            <g>
                <g>
                    <path d="M0 0H30V30H0z" transform="translate(-223 -364) translate(213 354) translate(10 10)"/>
                    <g fill="#000" fill-rule="nonzero">
                        <path d="M0 2H2V14H0zM18 2H20V16H18zM2 14H14V16H2zM2 0H18V2H2zM5 7H7V9H5zM9 7H11V9H9zM16 16H18V18H16zM14 18H16V20H14zM12 16H14V18H12zM13 7H15V9H13z" transform="translate(-223 -364) translate(213 354) translate(10 10) translate(5 5)"/>
                    </g>
                </g>
            </g>
        </g>
    </g>
</svg>
