<svg xmlns="http://www.w3.org/2000/svg" width="30" height="30" viewBox="0 0 30 30">
    <g fill="none" fill-rule="evenodd">
        <g>
            <g>
                <g>
                    <path d="M0 0H30V30H0z" transform="translate(-153 -364) translate(143 354) translate(10 10)"/>
                    <g>
                        <path fill="#000" fill-rule="nonzero" d="M0 2H2V16H0zM16 8H18V16H16zM16 0H18V5H16zM2 16H16V18H2zM2 0H11V2H2z" transform="translate(-153 -364) translate(143 354) translate(10 10) translate(6 6)"/>
                        <path fill="#000" fill-rule="nonzero" d="M13 0H18V2H13z" transform="translate(-153 -364) translate(143 354) translate(10 10) translate(6 6)"/>
                        <path stroke="#000" stroke-width="2" d="M17 1L8.515 9.485" transform="translate(-153 -364) translate(143 354) translate(10 10) translate(6 6)"/>
                    </g>
                </g>
            </g>
        </g>
    </g>
</svg>
