<svg width="24" height="24" viewBox="0 0 24 24" xmlns="http://www.w3.org/2000/svg">
    <g fill="#000" fill-rule="nonzero">
        <path d="M16.189 10.927H7.81l-.171.004A3.815 3.815 0 0 0 4 14.738v1.45A3.811 3.811 0 0 0 7.811 20h8.378A3.811 3.811 0 0 0 20 16.189v-1.45l-.004-.172a3.815 3.815 0 0 0-3.807-3.64zm-8.494 1.499.135-.003h8.359c1.236 0 2.252.97 2.312 2.2l.003.134v1.432a2.315 2.315 0 0 1-2.315 2.315H7.81a2.315 2.315 0 0 1-2.315-2.315v-1.45c0-1.236.97-2.253 2.199-2.313zM12 4a2.923 2.923 0 1 0 0 5.847A2.923 2.923 0 0 0 12 4zm0 1.496a1.428 1.428 0 1 1 0 2.855 1.428 1.428 0 0 1 0-2.855z"/>
    </g>
</svg>
