<svg width="24" height="24" viewBox="0 0 24 24" xmlns="http://www.w3.org/2000/svg">
    <g fill="none" fill-rule="evenodd">
        <path d="M4 4h16v16H4z"/>
        <path d="M17.09 4.75c.574 0 1.095.223 1.482.588.384.362.635.863.673 1.424l.005 10.329c0 .573-.223 1.094-.588 1.48a2.152 2.152 0 0 1-1.424.674l-10.307.005c-.61-.038-1.138-.266-1.523-.628a2.079 2.079 0 0 1-.653-1.378L4.75 6.921c.02-.579.26-1.102.637-1.49.376-.386.89-.639 1.463-.676z" stroke="#000" stroke-width="1.5"/>
        <g stroke="#000" stroke-linecap="round" stroke-linejoin="round" stroke-width="1.5">
            <path d="M13.916 9h-2.333c-.736 0-1.333.672-1.333 1.5s.597 1.5 1.333 1.5M10.583 15h2.334c.736 0 1.333-.672 1.333-1.5s-.597-1.5-1.333-1.5h-1.334"/>
        </g>
        <path d="M13 15.571v.679a.75.75 0 0 1-1.5 0v-.679H13zM12.25 7a.75.75 0 0 1 .75.75v.679h-1.5V7.75a.75.75 0 0 1 .75-.75z" fill="#000"/>
    </g>
</svg>
