<svg width="24" height="24" viewBox="0 0 24 24" xmlns="http://www.w3.org/2000/svg">
    <g fill="none" fill-rule="evenodd">
        <path d="M4 4h16v16H4z"/>
        <path d="M13.356 4.667c.368 0 .666.298.666.666v1.008a5.994 5.994 0 0 1 1.924 1.12l.913-.528a.667.667 0 0 1 .91.244l1.334 2.31a.667.667 0 0 1-.244.91l-.931.538a6.036 6.036 0 0 1-.006 2.162l.873.503a.667.667 0 0 1 .244.91l-1.334 2.31a.667.667 0 0 1-.91.244l-.874-.504a5.994 5.994 0 0 1-1.9 1.099l.001 1.008a.667.667 0 0 1-.589.662l-.077.004h-2.667a.667.667 0 0 1-.662-.589l-.005-.077v-1.009a5.995 5.995 0 0 1-1.95-1.142l-.95.548a.667.667 0 0 1-.868-.179l-.043-.065-1.333-2.31a.667.667 0 0 1 .179-.867l.065-.043.988-.57a6.039 6.039 0 0 1 .006-2.095l-.93-.537a.667.667 0 0 1-.28-.842l.036-.07 1.333-2.309a.667.667 0 0 1 .841-.279l.07.035.913.527a5.994 5.994 0 0 1 1.923-1.118V5.333c0-.368.299-.666.667-.666h2.667zM12.022 10a2 2 0 1 0 0 4 2 2 0 0 0 0-4z" stroke="#000" stroke-width="1.5" stroke-linejoin="round"/>
    </g>
</svg>
