<svg xmlns="http://www.w3.org/2000/svg" width="40" height="40" viewBox="0 0 40 40">
    <g fill="none" fill-rule="evenodd">
        <g>
            <g>
                <g transform="translate(-3430 -288) translate(3299 60) translate(131 228)">
                    <circle cx="20" cy="20" r="20" fill="#000" fill-opacity=".07"/>
                    <g>
                        <path fill="#000" d="M1 12v-2h8v2H7v2H5v-2H1zm10-4v2H9V8h2zM9 6v2H2V6h7zM2 4v2H0V4h2zm5-4v2h3v2H2V2h3V0h2z" transform="translate(13 9)"/>
                        <path stroke="#000" stroke-width="2" d="M11.483 12L11.483 16 15.483 16" transform="translate(13 9) rotate(-180 13.483 14)"/>
                        <path stroke="#000" stroke-width="2" d="M0 22.025L5.496 16.529 8.244 19.277 15.483 12" transform="translate(13 9)"/>
                    </g>
                </g>
            </g>
        </g>
    </g>
</svg>
