<svg xmlns="http://www.w3.org/2000/svg" width="40" height="40" viewBox="0 0 40 40">
    <g fill="none" fill-rule="evenodd">
        <g fill="#000">
            <g>
                <g transform="translate(-3490 -168) translate(3299 60) translate(191 108)">
                    <circle cx="20" cy="20" r="20" fill-opacity=".07"/>
                    <path fill-rule="nonzero" d="M28 28v2H12v-2h16zm-16-5v5h-2v-5h2zm18 0v5h-2v-5h2zm-16-2v2h-2v-2h2zm14 0v2h-2v-2h2zm-2-2v2H14v-2h12zm-4-3v2h-4v-2h4zm-4-4v4h-2v-4h2zm6 0v4h-2v-4h2zm-2-2v2h-4v-2h4z"/>
                </g>
            </g>
        </g>
    </g>
</svg>
