<svg width="24" height="25" viewBox="0 0 24 25" xmlns="http://www.w3.org/2000/svg">
    <g transform="translate(4 4.89)" fill="none" fill-rule="evenodd">
        <path d="M0 0h16v16H0z"/>
        <path d="M13.09.75c.574 0 1.095.223 1.482.588.384.362.635.863.673 1.424l.005 10.329c0 .573-.223 1.094-.588 1.48a2.152 2.152 0 0 1-1.424.674l-10.307.005c-.61-.038-1.138-.266-1.523-.628a2.079 2.079 0 0 1-.653-1.378L.75 2.931c.038-.61.266-1.138.628-1.523.356-.379.84-.615 1.378-.653z" stroke="#000" stroke-width="1.5"/>
        <circle fill="#000" cx="5" cy="5" r="1"/>
        <rect fill="#000" x="4" y="7.5" width="8" height="1.5" rx=".75"/>
        <rect fill="#000" x="4" y="10.5" width="8" height="1.5" rx=".75"/>
    </g>
</svg>
