<svg width="24" height="24" viewBox="0 0 24 24" xmlns="http://www.w3.org/2000/svg">
    <g fill="none" fill-rule="evenodd">
        <path d="M4 4h16v16H4z"/>
        <g fill="#000" fill-rule="nonzero">
            <path d="M15 12a2 2 0 0 1 2 2v3a2 2 0 0 1-2 2H7l-1.498.869A1 1 0 0 1 4 19.004V14a2 2 0 0 1 2-2h9zm0 1.5H6a.5.5 0 0 0-.492.41L5.5 14v4.135l1.097-.635H15a.5.5 0 0 0 .492-.41L15.5 17v-3a.5.5 0 0 0-.41-.492L15 13.5zM9 4a2 2 0 0 0-2 2v3a2 2 0 0 0 2 2h8l1.498.869A1 1 0 0 0 20 11.004V6a2 2 0 0 0-2-2H9zm0 1.5h9a.5.5 0 0 1 .492.41L18.5 6v4.135L17.403 9.5H9a.5.5 0 0 1-.492-.41L8.5 9V6a.5.5 0 0 1 .41-.492L9 5.5z"/>
        </g>
    </g>
</svg>
