<svg xmlns="http://www.w3.org/2000/svg" width="24" height="24" viewBox="0 0 24 24">
    <g fill="none" fill-rule="evenodd">
        <g>
            <g>
                <g>
                    <path d="M4 4H20V20H4z" transform="translate(-3299 -474) translate(3299 60) translate(0 414)"/>
                    <g fill="#000">
                        <path d="M0 0H8V1.5H0zM0 3H8V4.5H0zM0 6H5V7.5H0z" transform="translate(-3299 -474) translate(3299 60) translate(0 414) translate(8 8.25)"/>
                    </g>
                    <path fill="#000" d="M17 18.5V20H7v-1.5h10zM7 17v1.5H5.5V17H7zm11.5 0v1.5H17V17h1.5zM20 7v10h-1.5V7H20zM5.5 7v10H4V7h1.5zM7 5.5V7H5.5V5.5H7zm11.5 0V7H17V5.5h1.5zM17 4v1.5H7V4h10z" transform="translate(-3299 -474) translate(3299 60) translate(0 414)"/>
                </g>
            </g>
        </g>
    </g>
</svg>
