<svg xmlns="http://www.w3.org/2000/svg" xmlns:xlink="http://www.w3.org/1999/xlink" width="20" height="20" viewBox="0 0 20 20">
    <defs>
        <filter id="muktajjcxa" width="109.1%" height="115.4%" x="-4.5%" y="-3.8%" filterUnits="objectBoundingBox">
            <feMorphology in="SourceAlpha" radius="2.5" result="shadowSpreadOuter1"/>
            <feOffset dy="5" in="shadowSpreadOuter1" result="shadowOffsetOuter1"/>
            <feGaussianBlur in="shadowOffsetOuter1" result="shadowBlurOuter1" stdDeviation="5"/>
            <feComposite in="shadowBlurOuter1" in2="SourceAlpha" operator="out" result="shadowBlurOuter1"/>
            <feColorMatrix in="shadowBlurOuter1" values="0 0 0 0 0 0 0 0 0 0 0 0 0 0 0 0 0 0 0.2 0"/>
        </filter>
        <path id="1hgj52v57b" d="M0 0H220V130H0z"/>
    </defs>
    <g fill="none" fill-rule="evenodd">
        <g>
            <path fill="#FFF" d="M0 0H5985V1050H0z" transform="translate(-1783 -719)"/>
            <g>
                <g>
                    <g>
                        <g transform="translate(-1783 -719) translate(981 60) translate(0 527) translate(702 77)">
                            <use fill="#000" filter="url(#muktajjcxa)" xlink:href="#1hgj52v57b"/>
                            <path fill="#FFF" stroke="#000" stroke-linejoin="square" stroke-opacity=".1" d="M0.5 0.5H219.5V129.5H0.5z"/>
                        </g>
                        <path fill="#000" d="M109 55H111V75H109z" transform="translate(-1783 -719) translate(981 60) translate(0 527) translate(702 77) rotate(90 110 65)"/>
                        <path fill="#000" d="M109 55H111V75H109z" transform="translate(-1783 -719) translate(981 60) translate(0 527) translate(702 77)"/>
                    </g>
                </g>
            </g>
        </g>
    </g>
</svg>
