<?xml version="1.0" encoding="UTF-8"?>
<svg width="16px" height="16px" viewBox="0 0 16 16" version="1.1" xmlns="http://www.w3.org/2000/svg" xmlns:xlink="http://www.w3.org/1999/xlink">
    <title>icon-file</title>
    <g id="Page-1" stroke="none" stroke-width="1" fill="none" fill-rule="evenodd">
        <g id="icon-file">
            <polygon id="Path" points="0 0 16 0 16 16 0 16"></polygon>
            <path d="M11,14.5 L11,16 L3,16 L3,14.5 L11,14.5 Z M14.5,14.5 L14.5,16 L13,16 L13,14.5 L14.5,14.5 Z M3,13 L3,14.5 L1.5,14.5 L1.5,13 L3,13 Z M16,13 L16,14.5 L14.5,14.5 L14.5,13 L16,13 Z M13,13 L13,14.5 L11.5,14.5 L11.5,13 L13,13 Z M1.5,3 L1.5,13 L0,13 L0,3 L1.5,3 Z M11.5,11.5 L11.5,13 L10,13 L10,11.5 L11.5,11.5 Z M14.5,11.5 L14.5,13 L13,13 L13,11.5 L14.5,11.5 Z M13,10 L13,11.5 L11.5,11.5 L11.5,10 L13,10 Z M16,3 L16,11 L14.5,11 L14.5,3 L16,3 Z M3,1.5 L3,3 L1.5,3 L1.5,1.5 L3,1.5 Z M14.5,1.5 L14.5,3 L13,3 L13,1.5 L14.5,1.5 Z M13,0 L13,1.5 L3,1.5 L3,0 L13,0 Z" id="Shape" fill="#000000" fill-rule="nonzero"></path>
        </g>
    </g>
</svg>