<svg xmlns="http://www.w3.org/2000/svg" width="24" height="24" viewBox="0 0 24 24">
    <g fill="none" fill-rule="evenodd">
        <g>
            <g>
                <g>
                    <path d="M4 4H20V20H4z" transform="translate(-3299 -542) translate(3299 60) translate(0 482)"/>
                    <path fill="#000" d="M17 18.5V20H7v-1.5h10zM7 17v1.5H5.5V17H7zm11.5 0v1.5H17V17h1.5zM20 7v10h-1.5V7H20zM5.5 7v10H4V7h1.5zm7 8.25v1.5H11v-1.5h1.5zm0-3v2H11v-2h1.5zm1.5-1.5v1.5h-1.5v-1.5H14zm1.5-2v2H14v-2h1.5zm-5.5 0v1.5H8.5v-1.5H10zm4-1.5v1.5h-4v-1.5h4zM7 5.5V7H5.5V5.5H7zm11.5 0V7H17V5.5h1.5zM17 4v1.5H7V4h10z" transform="translate(-3299 -542) translate(3299 60) translate(0 482)"/>
                </g>
            </g>
        </g>
    </g>
</svg>
