<svg xmlns="http://www.w3.org/2000/svg" width="20" height="20" viewBox="0 0 20 20">
    <g fill="none" fill-rule="evenodd">
        <g fill="#BEBEBE" fill-rule="nonzero">
            <g>
                <g>
                    <path d="M8.48 16.982c1.888 0 3.652-.638 5.074-1.694L18.26 20 20 18.258l-4.706-4.687c1.054-1.424 1.691-3.166 1.691-5.08C16.985 3.804 13.186 0 8.505 0 3.824 0 0 3.828 0 8.49c0 4.663 3.824 8.492 8.48 8.492zm.05-14.63c3.414 0 6.176 2.763 6.176 6.177 0 3.415-2.762 6.177-6.177 6.177-3.414 0-6.176-2.762-6.176-6.177 0-3.414 2.787-6.176 6.176-6.176z" transform="translate(-3430 -295) translate(3299 60) translate(131 235)"/>
                </g>
            </g>
        </g>
    </g>
</svg>
