<svg width="24" height="24" viewBox="0 0 24 24" xmlns="http://www.w3.org/2000/svg">
    <g fill="none" fill-rule="evenodd">
        <path d="M4 4h16v16H4z"/>
        <g fill="#000">
            <circle cx="1" cy="1" r="1" transform="translate(18 6)"/>
            <path d="M16.25 7.5H7a1.5 1.5 0 0 0-1.493 1.356L5.5 9v8.003a.5.5 0 0 0 .761.427l.073-.054L8.426 15.5H17a1.5 1.5 0 0 0 1.493-1.356L18.5 14V9.75a.75.75 0 1 1 1.5 0V14a3 3 0 0 1-3 3H9l-1.665 1.492A2 2 0 0 1 4 17.003V9a3 3 0 0 1 3-3h9.25a.75.75 0 1 1 0 1.5z" fill-rule="nonzero"/>
        </g>
    </g>
</svg>
