<svg xmlns="http://www.w3.org/2000/svg" width="24" height="24" viewBox="0 0 24 24">
    <g fill="none" fill-rule="evenodd">
        <g>
            <g>
                <g>
                    <path d="M4 4H20V20H4z" transform="translate(-3299 -576) translate(3299 60) translate(0 516)"/>
                    <path fill="#000" d="M13.5 18.5V20h-3v-1.5h3zm-3-1.5v1.5H7V17h3.5zm6.5 0v1.5h-3.5V17H17zM7 13.5V17H5.5v-3.5H7zm11.5 0V17H17v-3.5h1.5zm-5 0V15h-3v-1.5h3zm-8-3v3H4v-3h1.5zm14.5 0v3h-1.5v-3H20zm-9.5 0v3H9v-3h1.5zm4.5 0v3h-1.5v-3H15zM13.5 9v1.5h-3V9h3zM7 7v3.5H5.5V7H7zm11.5 0v3.5H17V7h1.5zm-8-1.5V7H7V5.5h3.5zm6.5 0V7h-3.5V5.5H17zM13.5 4v1.5h-3V4h3z" transform="translate(-3299 -576) translate(3299 60) translate(0 516)"/>
                </g>
            </g>
        </g>
    </g>
</svg>
