<svg xmlns="http://www.w3.org/2000/svg" width="11" height="7" viewBox="0 0 11 7">
    <defs>
        <filter id="zgzmidkd8a" width="118.4%" height="114.4%" x="-9.2%" y="-7.2%" filterUnits="objectBoundingBox">
            <feOffset dy="5" in="SourceAlpha" result="shadowOffsetOuter1"/>
            <feGaussianBlur in="shadowOffsetOuter1" result="shadowBlurOuter1" stdDeviation="5"/>
            <feColorMatrix in="shadowBlurOuter1" result="shadowMatrixOuter1" values="0 0 0 0 0 0 0 0 0 0 0 0 0 0 0 0 0 0 0.1 0"/>
            <feMerge>
                <feMergeNode in="shadowMatrixOuter1"/>
                <feMergeNode in="SourceGraphic"/>
            </feMerge>
        </filter>
    </defs>
    <g fill="none" fill-rule="evenodd">
        <g>
            <g>
                <g>
                    <g filter="url(#zgzmidkd8a)" transform="translate(-4608 -725) translate(4431 60) translate(51 235) translate(0 39)">
                        <g>
                            <path fill="#FFF" stroke="#000" stroke-opacity=".15" d="M0.5 0.5H319.5V79.5H0.5z" transform="translate(0 331)"/>
                            <g>
                                <g>
                                    <path d="M0 0H7V10H0z" transform="translate(0 331) matrix(0 1 1 0 126.5 59.5) matrix(-1 0 0 1 7 0)"/>
                                    <path stroke="#426BF2" stroke-width="1.5" d="M5.5 1L1.5 5 5.5 9" transform="translate(0 331) matrix(0 1 1 0 126.5 59.5) matrix(-1 0 0 1 7 0)"/>
                                </g>
                            </g>
                        </g>
                    </g>
                </g>
            </g>
        </g>
    </g>
</svg>
