<?xml version="1.0" encoding="UTF-8"?>
<svg width="14px" height="13px" viewBox="0 0 14 13" version="1.1" xmlns="http://www.w3.org/2000/svg" xmlns:xlink="http://www.w3.org/1999/xlink">
    <title>36A6FA86-D13B-4B5C-9A05-F0D6A8325A9E</title>
    <g id="Components" stroke="none" stroke-width="1" fill="none" fill-rule="evenodd">
        <g id="General" transform="translate(-3431.000000, -557.000000)" fill="#FFFF00" fill-rule="nonzero">
            <g id="Group-29" transform="translate(3430.000000, 524.000000)">
                <g id="하트" transform="translate(1.000000, 33.000000)">
                    <path d="M8,11 L8,13 L6,13 L6,11 L8,11 Z M6,9 L6,11 L4,11 L4,9 L6,9 Z M10,9 L10,11 L8,11 L8,9 L10,9 Z M4,7 L4,9 L2,9 L2,7 L4,7 Z M12,7 L12,9 L10,9 L10,7 L12,7 Z M2,2 L2,7 L0,7 L0,2 L2,2 Z M14,2 L14,7 L12,7 L12,2 L14,2 Z M8,2 L8,4 L6,4 L6,2 L8,2 Z M6,0 L6,2 L2,2 L2,0 L6,0 Z M12,0 L12,2 L8,2 L8,0 L12,0 Z" id="Combined-Shape"></path>
                </g>
            </g>
        </g>
    </g>
</svg>