<svg width="24" height="24" viewBox="0 0 24 24" xmlns="http://www.w3.org/2000/svg">
    <g fill="none" fill-rule="evenodd">
        <path d="M4 4h16v16H4z"/>
        <path d="M12.426 4.104c.19.098.343.258.437.457l1.95 4.13 4.363.663c.526.08.89.59.814 1.14-.03.218-.13.42-.28.575l-3.157 3.215.745 4.54c.09.548-.262 1.067-.786 1.161a.926.926 0 0 1-.61-.1L12 17.74l-3.902 2.143a.942.942 0 0 1-1.3-.422 1.045 1.045 0 0 1-.096-.638l.745-4.54-3.156-3.215a1.038 1.038 0 0 1-.018-1.422.948.948 0 0 1 .55-.293l4.363-.663 1.951-4.13c.235-.498.812-.703 1.289-.457zm1.43 5.966L12 6.141l-1.855 3.929-4.15.63 3.003 3.058-.71 4.317L12 16.037l3.71 2.037-.708-4.316 3.001-3.059-4.148-.629z" fill="#000" fill-rule="nonzero"/>
    </g>
</svg>
