<svg xmlns="http://www.w3.org/2000/svg" width="40" height="40" viewBox="0 0 40 40">
    <g fill="none" fill-rule="evenodd">
        <g fill="#000">
            <g>
                <g transform="translate(-3610 -288) translate(3299 60) translate(311 228)">
                    <circle cx="20" cy="20" r="20" fill-opacity=".07"/>
                    <path fill-rule="nonzero" d="M23.5 28.5v2h-13v-2h13zm2-2v2h-2v-2h2zm2-2v2h-2v-2h2zm-17-1v2h-2v-2h2zm13 0v2h-5v-2h5zm6-1v2h-2v-2h2zm-4-1v2h-2v-2h2zm-13 0v2h-2v-2h2zm19-2v3h-2v-3h2zm-4 0v2h-2v-2h2zm-4 0v2h-11v-2h11zm6-2v2h-2v-2h2zm-7-2v2h-4v-2h4zm-4-4v4h-2v-4h2zm6 0v4h-2v-4h2zm-2-2v2h-4v-2h4z"/>
                </g>
            </g>
        </g>
    </g>
</svg>
