<svg xmlns="http://www.w3.org/2000/svg" width="40" height="40" viewBox="0 0 40 40">
    <g fill="none" fill-rule="evenodd">
        <g>
            <g>
                <g transform="translate(-3490 -288) translate(3299 60) translate(191 228)">
                    <circle cx="20" cy="20" r="20" fill="#000" fill-opacity=".07"/>
                    <g>
                        <g>
                            <g fill="#000" fill-rule="nonzero">
                                <path d="M0 2H2V16H0zM16 2H18V8H16zM2 0H16V2H2zM2 16H16V18H2z" transform="translate(10.5 11)"/>
                            </g>
                            <g stroke="#000" stroke-width="2">
                                <path d="M6.95 2L2 6.95" transform="translate(10.5 11) matrix(-1 0 0 1 23.782 8.525) rotate(-135 4.475 4.475)"/>
                                <path d="M6.95 2L2 6.95" transform="translate(10.5 11) matrix(-1 0 0 1 23.782 8.525) rotate(-45 4.475 4.475)"/>
                            </g>
                        </g>
                        <path fill="#000" d="M5.5 14v-2h6v2H10v2H8v-2H5.5zm8-4v2h-2v-2h2zm-2-2v2h-5V8h5zm-5-2v2h-2V6h2zM10 2v2h2.5v2h-6V4H8V2h2z" transform="translate(10.5 11)"/>
                    </g>
                </g>
            </g>
        </g>
    </g>
</svg>
