<svg xmlns="http://www.w3.org/2000/svg" width="24" height="24" viewBox="0 0 24 24">
    <g fill="none" fill-rule="evenodd">
        <g>
            <g>
                <g>
                    <path d="M4 4H20V20H4z" transform="translate(-3299 -270) translate(3299 60) translate(0 210)"/>
                    <path fill="#000" d="M7 16v2.5h1.5V20h-3v-4H7zm11.5 0v4h-3v-1.5H17V16h1.5zm-3 1v1.5H13V17h2.5zM11 17v1.5H8.5V17H11zm2-1.5V17h-2v-1.5h2zm-4.5-2V16H7v-2.5h1.5zm8.5 0V16h-1.5v-2.5H17zM7 12v1.5H5.5V12H7zm11.5 0v1.5H17V12h1.5zm-2.75-4.5V9H20v3h-1.5v-1.5h-3V9h-1.25V7.5h1.5zm-6 0V9H8.5v1.5h-3V12H4V9h4.25V7.5h1.5zm1.5-2v2h-1.5v-2h1.5zm3 0v2h-1.5v-2h1.5zM12.75 4v1.5h-1.5V4h1.5z" transform="translate(-3299 -270) translate(3299 60) translate(0 210)"/>
                </g>
            </g>
        </g>
    </g>
</svg>
