<svg xmlns="http://www.w3.org/2000/svg" width="40" height="40" viewBox="0 0 40 40">
    <g fill="none" fill-rule="evenodd">
        <g fill="#000">
            <g>
                <g transform="translate(-3550 -168) translate(3299 60) translate(251 108)">
                    <circle cx="20" cy="20" r="20" fill-opacity=".07"/>
                    <path d="M24 28v2h-8v-2h8zm-8-2v2h-2v-2h2zm10 0v2h-2v-2h2zm-3-3v2h-2v2h-2v-2h-3v-2h7zm-9 1v2h-2v-2h2zm14 0v2h-2v-2h2zm-16-8v8h-2v-8h2zm18 0v8h-2v-8h2zm-5 5v2h-2v-2h2zm-2-2v2h-6v-2h6zm-6-2v2h-2v-2h2zm4-4v2h3v2h-7v-2h2v-2h2zm-7 1v2h-2v-2h2zm14 0v2h-2v-2h2zm-12-2v2h-2v-2h2zm10 0v2h-2v-2h2zm-2-2v2h-8v-2h8z"/>
                </g>
            </g>
        </g>
    </g>
</svg>
