<svg xmlns="http://www.w3.org/2000/svg" width="24" height="24" viewBox="0 0 24 24">
    <g fill="none" fill-rule="evenodd">
        <g>
            <g>
                <g>
                    <path d="M4 4H20V20H4z" transform="translate(-3299 -372) translate(3299 60) translate(0 312)"/>
                    <path fill="#000" d="M18.5 17.5V19h-13v-1.5h13zm1.5-3v3h-1.5v-3H20zm-14.5 0v3H4v-3h1.5zm13-1.5v1.5H17V13h1.5zM7 13v1.5H5.5V13H7zm10-1.5V13H7v-1.5h10zm-3.5-3V10h-3V8.5h3zm-3-3v3H9v-3h1.5zm4.5 0v3h-1.5v-3H15zM13.5 4v1.5h-3V4h3z" transform="translate(-3299 -372) translate(3299 60) translate(0 312)"/>
                </g>
            </g>
        </g>
    </g>
</svg>
