<svg xmlns="http://www.w3.org/2000/svg" width="24" height="24" viewBox="0 0 24 24">
    <g fill="none" fill-rule="evenodd">
        <g>
            <g>
                <g>
                    <path d="M4 4H20V20H4z" transform="translate(-3299 -508) translate(3299 60) translate(0 448)"/>
                    <path fill="#000" d="M8.5 17.5V19H7v-1.5h1.5zm-1.5-3v3H5.5v-3H7zm3 1.5v1.5H8.5V16H10zm8.5-1.5V16H10v-1.5h8.5zm1.5-6v6h-1.5v-6H20zm-14.5-2v8H4v-8h1.5zM20 5v2h-2V5h2zm-3.5 0v1.5h-11V5h11z" transform="translate(-3299 -508) translate(3299 60) translate(0 448)"/>
                </g>
            </g>
        </g>
    </g>
</svg>
