<svg xmlns="http://www.w3.org/2000/svg" width="80" height="80" viewBox="0 0 80 80">
    <g fill="none" fill-rule="evenodd">
        <g>
            <g>
                <g>
                    <path fill="#FF0" d="M80 40c0 22.09-17.91 40-40 40C17.908 80 0 62.09 0 40S17.908 0 40 0c22.09 0 40 17.91 40 40" transform="translate(-575 -293) translate(575 293)"/>
                    <path fill="#000" d="M37.144 68.817c.992.09 1.656.71 1.921 1.49l-.708.323c-.168-.53-.551-.98-1.285-1.046-.647-.06-1.127.24-1.179.785-.05.554.352.798 1.172 1.139 1.02.438 1.983.835 1.875 1.986-.098 1.048-1.015 1.634-2.248 1.52-1.147-.105-1.913-.751-2.148-1.675l.728-.33c.153.677.63 1.15 1.51 1.231.854.078 1.313-.266 1.362-.802.059-.614-.457-.867-1.32-1.222-.936-.395-1.84-.78-1.736-1.886.102-1.075 1.047-1.607 2.056-1.513zm7.929-.197l.457 3.953c.148 1.292-.695 2.213-2.01 2.361-1.317.149-2.357-.56-2.507-1.853l-.456-3.952.8-.09.452 3.918c.096.825.658 1.312 1.62 1.204.964-.108 1.4-.709 1.305-1.534l-.452-3.918.791-.09zm7.09-.85l-.524.61c-.55-.506-1.388-.665-2.172-.39-1.337.47-1.89 1.744-1.443 2.986.445 1.233 1.686 1.877 3.024 1.406.784-.274 1.332-.92 1.438-1.648l.793.138c-.173.997-.907 1.871-1.967 2.244-1.745.613-3.455-.257-4.037-1.877-.586-1.627.186-3.36 1.932-3.974 1.053-.37 2.176-.157 2.956.505zm-24.71-1.443l4.068 1.584-.278.7-1.668-.65-1.944 4.874-.74-.289 1.942-4.872-1.66-.647.28-.7zm-4.858-2.98l.544.35.14 5.424 2.47-3.74.675.435-3.313 5.015-.544-.351-.136-5.43-2.474 3.748-.674-.435 3.312-5.016zm35.46.781l-.366.716c-.654-.365-1.507-.326-2.203.122-1.188.767-1.424 2.134-.696 3.238.724 1.096 2.085 1.435 3.274.667.697-.448 1.077-1.205 1.008-1.935l.804-.05c.067 1.01-.438 2.03-1.38 2.639-1.553.999-3.422.55-4.373-.892-.955-1.447-.615-3.311.938-4.311.934-.603 2.078-.656 2.994-.194zm-39.03-4.132l2.544 2.486-.536.534-1.971-1.923-1.308 1.306 1.817 1.776-.53.53-1.817-1.776-1.352 1.35 2.002 1.956-.537.535-2.573-2.514 4.262-4.26zm41.69-.364l.54.533-1.961 1.937 1.317 1.302 1.808-1.786.532.526-1.807 1.786 1.36 1.343 1.99-1.966.54.532-2.56 2.53-4.29-4.236 2.53-2.5zm4.063-3.549l-.058.768c-.552-.112-1.134.003-1.55.604-.366.531-.332 1.091.126 1.4.465.313.876.083 1.576-.461.881-.67 1.7-1.31 2.667-.66.88.593.956 1.67.258 2.68-.65.943-1.592 1.291-2.525 1.047l.06-.788c.675.194 1.326.011 1.823-.71.483-.7.4-1.264-.051-1.568-.516-.348-.99-.024-1.722.55-.803.618-1.58 1.214-2.511.588-.903-.609-.915-1.684-.345-2.511.56-.815 1.432-1.088 2.252-.939zm-49.467-1.119l.489.706-3.185 4.254 5.164-1.392.493.713-6.232 1.607-.513-.743 3.784-5.145zM13.564 51l1.421 3.243-.7.3-1.1-2.514-1.71.731 1.016 2.317-.691.295-1.015-2.317-1.765.755 1.118 2.554-.7.298L8 53.379 13.564 51zm53.478.253l.087.765c-.563-.008-1.112.212-1.406.88-.26.588-.121 1.132.387 1.35.516.222.876-.08 1.46-.743.74-.82 1.423-1.6 2.494-1.14.978.42 1.254 1.465.76 2.586-.459 1.043-1.32 1.56-2.28 1.49l-.09-.783c.698.067 1.303-.233 1.655-1.034.342-.776.154-1.314-.346-1.53-.572-.245-.977.158-1.587.858-.673.756-1.323 1.483-2.356 1.04-1-.431-1.216-1.484-.812-2.402.397-.902 1.2-1.331 2.034-1.337zM9.389 24.102l.703.292-1.077 2.523 1.717.715.991-2.326.695.29-.992 2.325 1.771.737 1.093-2.563.703.293-1.406 3.297L8 27.359l1.389-3.257zm62.676 1.286c.4.901.173 1.774-.39 2.382l-.629-.456c.39-.403.6-.952.306-1.617-.261-.589-.759-.86-1.267-.64-.516.223-.537.69-.442 1.564.107 1.094.22 2.12-.851 2.582-.975.423-1.938-.085-2.435-1.206-.462-1.043-.26-2.018.444-2.668l.642.469c-.523.46-.711 1.101-.356 1.901.343.777.87 1.006 1.37.79.571-.247.546-.815.443-1.732-.104-1.002-.202-1.969.83-2.415 1-.433 1.928.128 2.335 1.046zm-3.126-5.571c.562.812.501 1.713.063 2.413l-.703-.335c.307-.466.412-1.043-.004-1.644-.366-.53-.906-.705-1.364-.396-.464.313-.397.775-.141 1.618.31 1.055.614 2.042-.352 2.692-.88.594-1.921.27-2.62-.74-.648-.94-.633-1.934-.063-2.703l.72.343c-.428.549-.494 1.215.004 1.935.484.7 1.045.829 1.496.524.515-.346.384-.9.11-1.783-.29-.964-.567-1.898.363-2.524.902-.609 1.92-.227 2.491.6zM13.264 17.93l3.815 5.127-.507.745-6.238-1.57.483-.709 5.178 1.349-3.22-4.225.49-.717zm50.343-4.058l2.526 2.5-.539.534-1.958-1.94-1.318 1.3 1.804 1.787-.532.525-1.805-1.786-1.361 1.342 1.988 1.968-.54.532-2.556-2.531 4.29-4.23zm-46.224-.194l.539.533-1.962 1.933 1.316 1.303 1.808-1.783.531.527-1.808 1.783 1.36 1.344 1.99-1.964.54.533-2.564 2.526-4.28-4.238 2.53-2.497zm5.899-4.221l3.345 4.999-.544.353-5.1-2.035 2.5 3.735-.672.438-3.345-4.998.542-.354 5.096 2.028-2.494-3.727.672-.44zm36.212 1.155c.938.602 1.45 1.614 1.393 2.629l-.81-.041c.073-.74-.31-1.494-1.007-1.941-1.192-.764-2.552-.423-3.279.683-.72 1.099-.484 2.465.709 3.23.697.448 1.55.485 2.2.126l.371.707c-.907.469-2.056.426-3.001-.18-1.555-.998-1.894-2.868-.947-4.312.952-1.45 2.817-1.898 4.371-.901zM29.571 6.7l.284.698-1.663.661 1.98 4.86-.74.293-1.978-4.858-1.656.658-.284-.698L29.57 6.7zm22.55.264c1.054.365 1.795 1.228 1.982 2.227l-.797.15c-.106-.735-.657-1.379-1.442-1.651-1.34-.463-2.58.187-3.021 1.43-.438 1.236.12 2.508 1.461 2.972.785.271 1.623.107 2.168-.394L53 12.3c-.768.668-1.895.896-2.957.527-1.749-.606-2.528-2.343-1.952-3.966.578-1.631 2.28-2.502 4.03-1.896zM41.902 5l.8.088-.44 3.922c-.092.825.346 1.424 1.312 1.529.963.106 1.523-.384 1.616-1.21l.44-3.921.792.086-.443 3.956c-.145 1.294-1.175 2.007-2.493 1.864-1.317-.144-2.172-1.065-2.028-2.358L41.9 5zm-2.677 1.201l-.635.448c-.266-.49-.727-.86-1.46-.789-.647.061-1.062.446-1.008.99.055.554.497.719 1.368.9 1.085.24 2.106.453 2.218 1.603.103 1.046-.685 1.794-1.918 1.912-1.147.109-2.02-.384-2.428-1.247l.652-.458c.28.635.838 1.012 1.718.927.853-.082 1.237-.505 1.185-1.042-.06-.612-.615-.766-1.529-.954-.996-.214-1.955-.422-2.064-1.53-.105-1.073.723-1.77 1.73-1.867.992-.096 1.76.389 2.171 1.107z" transform="translate(-575 -293) translate(575 293)"/>
                </g>
                <g fill-rule="nonzero">
                    <path fill="#FF0" d="M27.826 25.74H25.74v2.086h-3.478v2.087H9.739v-2.087H6.261V25.74H4.174v-3.478H2.087V9.739h2.087V6.261H6.26V4.174h3.478V2.087h12.522v2.087h3.478V6.26h2.087v3.478h2.087v12.522h-2.087v3.478z" transform="translate(-575 -293) translate(575 293) translate(24 24)"/>
                    <path fill="#000" d="M22.26 29.913V32H9.74v-2.087h12.52zM9.74 27.826v2.087H6.26v-2.087h3.48zm16 0v2.087h-3.48v-2.087h3.48zM6.26 25.74v2.087H4.175V25.74H6.26zm21.566 0v2.087H25.74V25.74h2.087zm2.087-3.478v3.478h-2.087v-3.478h2.087zm-25.74 0v3.478H2.088v-3.478h2.087zM2.088 9.739v12.522H0V9.739h2.087zM32 9.74v12.522h-2.087V9.739H32zM4.174 6.261v3.478H2.087V6.261h2.087zm25.739 0v3.478h-2.087V6.261h2.087zM6.261 4.174V6.26H4.174V4.174H6.26zm21.565 0V6.26H25.74V4.174h2.087zM9.74 2.087v2.087H6.261V2.087h3.478zm16 0v2.087h-3.478V2.087h3.478zM22.261 0v2.087H9.739V0h12.522z" transform="translate(-575 -293) translate(575 293) translate(24 24)"/>
                    <g>
                        <g>
                            <g>
                                <path fill="#000" d="M2.087 4.174H8.348V6.261000000000001H2.087z" transform="translate(-575 -293) translate(575 293) translate(24 24) translate(2.087 10.435) translate(2.087 2.087)"/>
                                <path fill="#FFF" d="M2.087 0H4.174V2.087H2.087zM4.174 0H6.261000000000001V2.087H4.174zM2.087 2.087H4.174V4.174H2.087z" transform="translate(-575 -293) translate(575 293) translate(24 24) translate(2.087 10.435) translate(2.087 2.087)"/>
                                <path fill="#000" d="M4.174 2.087H6.261000000000001V4.174H4.174z" transform="translate(-575 -293) translate(575 293) translate(24 24) translate(2.087 10.435) translate(2.087 2.087)"/>
                                <path fill="#000" d="M6.261 2.087H8.348V4.174H6.261zM6.261 0H8.348V2.087H6.261zM0 0H2.087V4.174H0zM8.348 0H10.435V4.174H8.348z" transform="translate(-575 -293) translate(575 293) translate(24 24) translate(2.087 10.435) translate(2.087 2.087)"/>
                            </g>
                            <g>
                                <path fill="#000" d="M2.087 4.174H8.348V6.261000000000001H2.087z" transform="translate(-575 -293) translate(575 293) translate(24 24) translate(2.087 10.435) translate(15.304 2.087)"/>
                                <path fill="#FFF" d="M2.087 0H4.174V2.087H2.087zM4.174 0H6.261000000000001V2.087H4.174zM2.087 2.087H4.174V4.174H2.087z" transform="translate(-575 -293) translate(575 293) translate(24 24) translate(2.087 10.435) translate(15.304 2.087)"/>
                                <path fill="#000" d="M4.174 2.087H6.261000000000001V4.174H4.174z" transform="translate(-575 -293) translate(575 293) translate(24 24) translate(2.087 10.435) translate(15.304 2.087)"/>
                                <path fill="#000" d="M6.261 2.087H8.348V4.174H6.261zM6.261 0H8.348V2.087H6.261zM0 0H2.087V4.174H0zM8.348 0H10.435V4.174H8.348z" transform="translate(-575 -293) translate(575 293) translate(24 24) translate(2.087 10.435) translate(15.304 2.087)"/>
                            </g>
                            <path fill="#000" d="M0 0H27.826V2.087H0z" transform="translate(-575 -293) translate(575 293) translate(24 24) translate(2.087 10.435)"/>
                        </g>
                        <path fill="#000" d="M19.478 12.522v2.087H8.348v-2.087h11.13zm2.087-2.087v2.087h-2.087v-2.087h2.087z" transform="translate(-575 -293) translate(575 293) translate(24 24) translate(2.087 10.435)"/>
                    </g>
                </g>
            </g>
        </g>
    </g>
</svg>
