<svg xmlns="http://www.w3.org/2000/svg" width="24" height="24" viewBox="0 0 24 24">
    <g fill="none" fill-rule="evenodd">
        <g>
            <g transform="translate(-1154 -174) translate(1154 174)">
                <circle cx="12" cy="12" r="12" fill="#000"/>
                <path fill="#FFF" fill-rule="nonzero" d="M12.768 13.664c0-1.408 2.688-2.112 2.688-4.512C15.456 7.088 13.68 6 11.872 6 10.176 6 8.656 6.864 8 8.48l1.888 1.088c.336-.864.96-1.424 1.904-1.424.928 0 1.456.432 1.456 1.168 0 1.584-2.688 2.24-2.688 4.352h2.208zm-1.104 3.968c.752 0 1.36-.608 1.36-1.36 0-.752-.608-1.36-1.36-1.36-.752 0-1.36.608-1.36 1.36 0 .752.608 1.36 1.36 1.36z"/>
            </g>
        </g>
    </g>
</svg>
