<svg xmlns="http://www.w3.org/2000/svg" xmlns:xlink="http://www.w3.org/1999/xlink" width="51" height="20" viewBox="0 0 51 20">
    <defs>
        <path id="o6c1xq237a" d="M0 0L20 0 20 20 0 20z"/>
    </defs>
    <g fill="none" fill-rule="evenodd">
        <g>
            <g>
                <g>
                    <g>
                        <path fill="#333" d="M27.283 5.649v4.248h2.25c1.65 0 2.474-.682 2.474-2.045v-.285c0-.655-.198-1.138-.595-1.45-.396-.312-.964-.468-1.703-.468h-2.426zm-1.57-1.363h4.082c.643 0 1.202.082 1.677.246.475.163.867.39 1.178.681.312.29.543.636.697 1.039.152.401.229.835.229 1.299v.333c0 .465-.081.901-.245 1.308-.164.407-.404.763-.72 1.07-.316.307-.709.55-1.177.729-.47.18-1.015.27-1.637.27h-2.514v4.453h-1.57V4.286zM40.106 11.768h-2.171c-.603 0-1.033.116-1.293.348-.258.233-.387.555-.387.967v.222c0 .423.147.73.443.919.296.19.65.286 1.062.286.381 0 .711-.045.991-.135.28-.09.536-.224.769-.404.211-.158.362-.341.452-.547.089-.206.134-.473.134-.8v-.856zm-2.504 4.073c-.877 0-1.572-.216-2.085-.65-.512-.433-.768-1.03-.768-1.79v-.428c0-.74.248-1.343.744-1.808.497-.465 1.3-.697 2.41-.697h2.203v-.507c0-.581-.14-1.012-.42-1.293-.28-.279-.737-.42-1.37-.42-.508 0-.95.08-1.324.238-.376.159-.764.37-1.166.634l-.76-1.141c.422-.296.898-.552 1.426-.769.528-.217 1.142-.325 1.839-.325.486 0 .93.061 1.331.183.402.122.748.301 1.039.539.29.238.517.528.681.872.164.343.245.731.245 1.164v6.071h-1.473v-1.045h-.017c-.084.158-.197.304-.34.436-.142.131-.299.245-.467.34-.233.127-.484.225-.753.294-.27.068-.595.102-.975.102zM46.986 13.971L49.268 7.044 50.885 7.044 46.383 19.297 44.988 18.806 46.113 15.841 42.959 7.044 44.623 7.044 46.922 13.971z" transform="translate(-72 -1170) translate(20 1039) translate(0 116) translate(52 15)"/>
                        <g transform="translate(-72 -1170) translate(20 1039) translate(0 116) translate(52 15)">
                            <mask id="6m6026d80b" fill="#fff">
                                <use xlink:href="#o6c1xq237a"/>
                            </mask>
                            <path fill="#00C73C" d="M15 14.578h-3.41l-3.226-4.74v4.74H5V5.422H8.41l3.226 4.739V5.422H15v9.156zM0 20h20V0H0v20z" mask="url(#6m6026d80b)"/>
                        </g>
                    </g>
                </g>
            </g>
        </g>
    </g>
</svg>
