<svg xmlns="http://www.w3.org/2000/svg" width="62" height="14" viewBox="0 0 62 14">
    <g fill="none" fill-rule="evenodd">
        <g fill="#FA1616" fill-rule="nonzero">
            <g>
                <g>
                    <g>
                        <path d="M41.63.006c1.384-.017 2.799.28 3.983 1.017.334.213.698.424.898.78.28.478.271 1.116-.049 1.572-.337.508-1.007.748-1.593.593-.42-.097-.725-.421-1.096-.617-.916-.54-2.035-.732-3.074-.498-.869.195-1.656.715-2.187 1.428-.966 1.28-1.119 3.076-.51 4.542.359.863 1.014 1.614 1.857 2.029.679.349 1.464.45 2.218.374.736-.06 1.446-.33 2.049-.754.259-.167.477-.4.768-.515.37-.151.803-.128 1.156.055.474.237.791.76.76 1.29-.017.386-.21.752-.503 1-.651.573-1.405 1.035-2.229 1.312-.694.24-1.428.347-2.16.386h-.827c-.983-.057-1.961-.292-2.839-.741-1.297-.642-2.364-1.726-3.005-3.021-.756-1.516-.923-3.299-.54-4.943.347-1.485 1.197-2.851 2.398-3.795C38.375.49 40.012-.024 41.63.006zm9.651.837c1.538-.81 3.355-1.02 5.054-.7 1.454.274 2.827 1.002 3.835 2.09.99 1.053 1.617 2.432 1.786 3.865V7.86c-.177 1.518-.873 2.97-1.956 4.05-1.01 1.02-2.344 1.7-3.753 1.96-.359.068-.723.104-1.088.129h-.783c-.577-.035-1.15-.117-1.707-.273-1.402-.383-2.688-1.203-3.594-2.343-.886-1.101-1.405-2.485-1.485-3.895-.092-1.388.22-2.809.928-4.011.647-1.116 1.62-2.036 2.763-2.635zM15.741.29c.452-.287 1.017-.315 1.533-.239.605.095 1.098.553 1.342 1.098 1.523 3.426 3.043 6.854 4.565 10.28.115.276.268.541.325.838.075.463-.107.957-.46 1.266-.4.37-1.017.452-1.517.252-.394-.156-.683-.504-.852-.884-.31-.722-.617-1.446-.93-2.167l-5.952.001-.946 2.216c-.134.318-.366.603-.675.765-.425.23-.968.238-1.393 0-.445-.247-.726-.756-.696-1.265.006-.256.12-.49.223-.72l4.616-10.395c.166-.416.431-.807.817-1.046zM33.62.221c.647.265.947 1.06.759 1.71-.08.286-.233.543-.414.776L30.66 7.154c-.33.453-.675.894-.995 1.352l-.005 1.773v1.772c-.005.237.023.48-.04.711-.09.378-.336.714-.67.912-.489.3-1.15.286-1.626-.035-.407-.267-.663-.748-.653-1.235l.001-3.844-4.39-5.95c-.224-.303-.368-.674-.361-1.055-.008-.446.218-.887.58-1.145.413-.307.983-.376 1.464-.202.378.134.665.437.89.758 1.11 1.596 2.222 3.19 3.33 4.788l3.204-4.564c.229-.338.473-.686.835-.895.418-.249.952-.257 1.396-.074zM5.447.116c.94-.011 1.897.136 2.755.535.853.39 1.587 1.053 2.017 1.89.505.958.612 2.084.46 3.143-.145 1-.642 1.952-1.415 2.609-1.013.874-2.368 1.25-3.684 1.3-.863.003-1.727-.001-2.59 0v2.813c.002.42-.183.839-.502 1.114-.481.434-1.25.49-1.796.145-.39-.235-.645-.66-.692-1.11v-11.1c.04-.409.253-.8.585-1.042.25-.19.56-.293.873-.297zM56.67 3.214c-.743-.392-1.608-.53-2.44-.425-.573.072-1.134.262-1.623.573-.836.52-1.447 1.369-1.717 2.312-.35 1.21-.204 2.572.46 3.65.414.682 1.034 1.238 1.762 1.566.809.367 1.737.45 2.603.264.833-.178 1.606-.633 2.155-1.286 1.06-1.241 1.283-3.086.669-4.582-.36-.878-1.024-1.635-1.869-2.072zm-39.899.446c-.621 1.48-1.247 2.958-1.867 4.44 1.246 0 2.492-.004 3.738.001-.623-1.48-1.242-2.962-1.87-4.44zM5.36 2.818H2.99v4.118h2.502c.685-.02 1.407-.278 1.829-.844.343-.44.438-1.029.365-1.573-.059-.468-.286-.925-.668-1.212-.469-.361-1.078-.486-1.658-.49z" transform="translate(-67 -1303) translate(20 1039) translate(0 246) translate(47 18)"/>
                    </g>
                </g>
            </g>
        </g>
    </g>
</svg>
