<?xml version="1.0" encoding="UTF-8"?>
<svg width="133px" height="46px" viewBox="0 0 133 46" version="1.1" xmlns="http://www.w3.org/2000/svg" xmlns:xlink="http://www.w3.org/1999/xlink">
    <title>eventSticker2</title>
    <g id="Page-1" stroke="none" stroke-width="1" fill="none" fill-rule="evenodd">
        <g id="eventSticker2" fill="#000000" fill-rule="nonzero">
            <path d="M110.5,0 C122.926,0 133,10.297 133,23 C133,35.703 122.926,46 110.5,46 C104.975,46 99.916,43.965 96,40.588 C92.085,43.964 87.025,46 81.5,46 C75.975,46 70.916,43.965 67,40.588 C63.085,43.964 58.025,46 52.5,46 C46.737,46 41.48,43.786 37.5,40.144 C33.52,43.785 28.263,46 22.5,46 C10.074,46 0,35.703 0,23 C0,10.297 10.074,0 22.5,0 C28.263,0 33.52,2.215 37.5,5.857 C41.48,2.214 46.738,0 52.5,0 C58.025,0 63.085,2.036 67.001,5.413 C70.916,2.035 75.975,0 81.5,0 C87.025,0 92.085,2.036 96.001,5.413 C99.916,2.035 104.975,0 110.5,0 Z" id="Path"></path>
        </g>
    </g>
</svg>