<svg width="30" height="30" viewBox="0 0 30 30" xmlns="http://www.w3.org/2000/svg">
    <defs>
        <filter id="a">
            <feColorMatrix in="SourceGraphic" values="0 0 0 0 1.000000 0 0 0 0 1.000000 0 0 0 0 0.000000 0 0 0 1.000000 0"/>
        </filter>
    </defs>
    <g transform="translate(-138 -18)" filter="url(#a)" fill="none" fill-rule="evenodd">
        <path d="M138 18h30v30h-30z"/>
        <path d="M148 24a4 4 0 0 0-3.995 3.8L144 28v10a4 4 0 0 0 3.8 3.995l.2.005h10a4 4 0 0 0 3.995-3.8L162 38v-4h-2v4a2 2 0 0 1-1.85 1.995L158 40h-10a2 2 0 0 1-1.995-1.85L146 38V28a2 2 0 0 1 1.85-1.995L148 26h9v-2h-9z" fill="#FF0" fill-rule="nonzero"/>
        <path stroke="#FF0" stroke-width="2" d="M149 32.409 152.591 36l10-10"/>
    </g>
</svg>
