<svg xmlns="http://www.w3.org/2000/svg" width="30" height="30" viewBox="0 0 30 30">
    <defs>
        <filter id="29sgcwt3ka">
            <feColorMatrix in="SourceGraphic" values="0 0 0 0 1.000000 0 0 0 0 1.000000 0 0 0 0 1.000000 0 0 0 1.000000 0"/>
        </filter>
    </defs>
    <g fill="none" fill-rule="evenodd">
        <g>
            <g filter="url(#29sgcwt3ka)" transform="translate(-98 -154) translate(73 140)">
                <g>
                    <path d="M0 0H30V30H0z" transform="translate(25 14)"/>
                    <path fill="#000" fill-rule="nonzero" d="M17.5 23v2h-5v-2h5zM8 17v2h14v-2h2v2h2v2h-6.5v2h-2v-2h-5v2h-2v-2H4v-2h2v-2h2zM20 7v2h2v8h-2V9h-2V7h2zm-8 0v2h-2v8H8V9h2V7h2zm6-2v2h-6V5h6z" transform="translate(25 14)"/>
                </g>
            </g>
        </g>
    </g>
</svg>
