<svg width="30" height="30" viewBox="0 0 30 30" xmlns="http://www.w3.org/2000/svg">
    <g fill="none" fill-rule="evenodd">
        <path d="M0 0h30v30H0z"/>
        <g transform="translate(4.838 5.33)" fill="#FFF">
            <g fill-rule="nonzero">
                <path d="M9.706.87a8.261 8.261 0 0 1 8.257 8.025l.004.235v2.679l.934.93a1.74 1.74 0 0 1-1.228 2.971h-3.665a4.349 4.349 0 0 1-8.604 0H1.74a1.74 1.74 0 0 1-1.228-2.97l.934-.931V9.13A8.26 8.26 0 0 1 9.705.87zm0 1.739a6.522 6.522 0 0 0-6.518 6.31l-.004.211v3.4L1.74 13.971h5.168l.218 1.487a2.61 2.61 0 0 0 5.135.151l.027-.15.217-1.488h5.169l-1.445-1.44V9.154l-.003-.211a6.522 6.522 0 0 0-6.52-6.335z"/>
                <path d="M14.923 13.974v1.739H5.358v-1.74z"/>
            </g>
            <circle cx="9.706" cy="1.304" r="1.304"/>
        </g>
    </g>
</svg>
