<svg width="40" height="40" viewBox="0 0 40 40" xmlns="http://www.w3.org/2000/svg">
    <g fill="none" fill-rule="evenodd">
        <path d="M20 40c11.046 0 20-8.954 20-20 0-.629-.029-1.251-.086-1.865C38.974 7.964 30.417 0 20 0 8.954 0 0 8.954 0 20s8.954 20 20 20z" fill="#000"/>
        <path d="M12 17.09c0-4.971 7.013-5.588 7.968-.194l.032.195c.82-5.603 8-5.032 8 0 0 3.142-2.882 6.252-8 10.409-5.333-4.266-8-7.202-8-10.41z" stroke="#FF0" stroke-width="2" stroke-linejoin="round"/>
    </g>
</svg>
