<svg width="18" height="18" viewBox="0 0 18 18" xmlns="http://www.w3.org/2000/svg">
    <g fill="#000" fill-rule="nonzero">
        <path d="M4 0A4 4 0 0 0 .005 3.8L0 4v10a4 4 0 0 0 3.8 3.995L4 18h10a4 4 0 0 0 3.995-3.8L18 14V7a1 1 0 0 0-1.993-.117L16 7v7a2 2 0 0 1-1.85 1.995L14 16H4a2 2 0 0 1-1.995-1.85L2 14V4a2 2 0 0 1 1.85-1.995L4 2h6.996a1 1 0 0 0 .116-1.993L10.996 0H4z"/>
        <path d="M8.757 9.243c-.362-.363-.427-.896-.167-1.238l.066-.076L15.93.656c.335-.334.923-.29 1.314.101.362.363.427.896.167 1.238l-.066.076-7.273 7.273c-.335.334-.923.29-1.314-.101z"/>
    </g>
</svg>
