<svg xmlns="http://www.w3.org/2000/svg" width="298" height="82" viewBox="0 0 298 82">
    <g fill="none" fill-rule="evenodd">
        <g>
            <g>
                <g>
                    <path fill="#FF0" d="M14.721 3.155L14.721 6.309 9.463 6.309 9.463 9.463 6.31 9.463 6.31 14.72 3.155 14.72 3.155 33.647 6.31 33.647 6.31 38.905 9.463 38.905 9.463 42.059 14.721 42.059 14.721 45.214 33.648 45.214 33.648 42.059 38.905 42.059 38.905 38.905 42.059 38.905 42.059 33.647 45.214 33.647 45.214 14.72 42.059 14.72 42.059 9.463 38.905 9.463 38.905 6.309 33.648 6.309 33.648 3.155z" transform="translate(-60.000000, -1699.000000) translate(60.000000, 1699.000000) translate(0.000000, 18.000000)"/>
                    <path fill="#000" d="M14.721 0v3.155H9.463V6.31H6.31v3.154H3.155v5.256H0v18.927h3.155V14.72H6.31V9.464h3.153V6.31h5.258V3.155h18.927V0H14.721zm18.927 6.31h5.257V3.156h-5.257V6.31zm5.257 3.154h3.154V6.31h-3.154v3.154zm3.154 5.256h3.155V9.463h-3.155v5.257zm3.155 0v18.927h-3.155v5.258h-3.154v3.155h-5.257v3.154H14.721v3.154h18.927v-3.154h5.257V42.06h3.154v-3.155h3.155v-5.258h3.154V14.72h-3.154zM3.155 38.905h3.154v-5.258H3.155v5.258zM6.31 42.06h3.154v-3.154H6.31v3.154zm3.153 3.154h5.258v-3.155H9.463v3.155z" transform="translate(-60.000000, -1699.000000) translate(60.000000, 1699.000000) translate(0.000000, 18.000000)"/>
                    <path fill="#000" d="M9.463 28.391L18.927 28.391 18.927 25.237 9.463 25.237z" transform="translate(-60.000000, -1699.000000) translate(60.000000, 1699.000000) translate(0.000000, 18.000000)"/>
                    <path fill="#FFF" d="M9.463 22.082L12.618 22.082 12.618 18.928 9.463 18.928zM12.619 22.082L15.773 22.082 15.773 18.928 12.619 18.928zM9.463 25.236L12.618 25.236 12.618 22.082 9.463 22.082z" transform="translate(-60.000000, -1699.000000) translate(60.000000, 1699.000000) translate(0.000000, 18.000000)"/>
                    <path fill="#000" d="M12.619 25.236L15.773 25.236 15.773 22.082 12.619 22.082z" transform="translate(-60.000000, -1699.000000) translate(60.000000, 1699.000000) translate(0.000000, 18.000000)"/>
                    <path fill="#000" d="M15.772 25.236L18.927 25.236 18.927 22.082 15.772 22.082zM15.772 22.082L18.927 22.082 18.927 18.928 15.772 18.928zM6.31 25.236L9.464 25.236 9.464 18.927 6.31 18.927zM18.927 25.236L22.081 25.236 22.081 18.927 18.927 18.927zM29.442 28.391L38.905 28.391 38.905 25.237 29.442 25.237z" transform="translate(-60.000000, -1699.000000) translate(60.000000, 1699.000000) translate(0.000000, 18.000000)"/>
                    <path fill="#FFF" d="M29.442 22.082L32.596 22.082 32.596 18.928 29.442 18.928zM32.596 22.082L35.751 22.082 35.751 18.928 32.596 18.928zM29.442 25.236L32.596 25.236 32.596 22.082 29.442 22.082z" transform="translate(-60.000000, -1699.000000) translate(60.000000, 1699.000000) translate(0.000000, 18.000000)"/>
                    <path fill="#000" d="M32.596 25.236L35.751 25.236 35.751 22.082 32.596 22.082z" transform="translate(-60.000000, -1699.000000) translate(60.000000, 1699.000000) translate(0.000000, 18.000000)"/>
                    <path fill="#000" d="M35.75 25.236L38.904 25.236 38.904 22.082 35.75 22.082zM35.75 22.082L38.904 22.082 38.904 18.928 35.75 18.928zM26.287 25.236L29.442 25.236 29.442 18.927 26.287 18.927zM38.905 25.236L42.059 25.236 42.059 18.927 38.905 18.927zM3.155 18.927L45.214 18.927 45.214 15.772 3.155 15.772zM32.596 31.545L32.596 34.699 15.772 34.699 15.772 37.854 32.596 37.854 32.596 34.699 35.751 34.699 35.751 31.545z" transform="translate(-60.000000, -1699.000000) translate(60.000000, 1699.000000) translate(0.000000, 18.000000)"/>
                </g>
                <g>
                    <path fill="#FF0" d="M14.721 3.155L14.721 6.309 9.463 6.309 9.463 9.463 6.31 9.463 6.31 14.72 3.155 14.72 3.155 33.648 6.31 33.648 6.31 38.904 9.463 38.904 9.463 42.059 14.721 42.059 14.721 45.215 33.648 45.215 33.648 42.059 38.905 42.059 38.905 38.904 42.059 38.904 42.059 33.648 45.214 33.648 45.214 14.72 42.059 14.72 42.059 9.463 38.905 9.463 38.905 6.309 33.648 6.309 33.648 3.155z" transform="translate(-60.000000, -1699.000000) translate(60.000000, 1699.000000) translate(60.000000, 4.000000)"/>
                    <path fill="#000" d="M14.721 0v3.154H9.463v3.155H6.31v3.154H3.155v5.257H0v18.927h3.155V14.72H6.31V9.463h3.153V6.309h5.258V3.154h18.927V0H14.721zm18.927 6.309h5.257V3.154h-5.257v3.155zm5.257 3.154h3.154V6.309h-3.154v3.154zm3.154 5.257h3.155V9.462h-3.155v5.258zm3.155 0v18.927h-3.155v5.257h-3.154v3.155h-5.257v3.155H14.721v3.154h18.927v-3.154h5.257v-3.155h3.154v-3.155h3.155v-5.257h3.154V14.72h-3.154zM3.155 38.904h3.154v-5.257H3.155v5.257zm3.155 3.155h3.154v-3.155H6.31v3.155zm3.153 3.155h5.258v-3.155H9.463v3.155z" transform="translate(-60.000000, -1699.000000) translate(60.000000, 1699.000000) translate(60.000000, 4.000000)"/>
                    <path fill="#000" d="M31.545 30.493L31.545 33.648 16.824 33.648 16.824 36.802 31.545 36.802 31.545 33.648 34.699 33.648 34.699 30.493zM11.566 22.081L21.03 22.081 21.03 18.927 11.566 18.927z" transform="translate(-60.000000, -1699.000000) translate(60.000000, 1699.000000) translate(60.000000, 4.000000)"/>
                    <path fill="#000" d="M14.721 25.235L21.03 25.235 21.03 22.08 14.721 22.08zM8.412 25.235L11.566 25.235 11.566 22.08 8.412 22.08z" transform="translate(-60.000000, -1699.000000) translate(60.000000, 1699.000000) translate(60.000000, 4.000000)"/>
                    <path fill="#FFF" d="M17.875 24.184L21.029 24.184 21.029 21.029 17.875 21.029z" transform="translate(-60.000000, -1699.000000) translate(60.000000, 1699.000000) translate(60.000000, 4.000000)"/>
                    <path fill="#000" d="M30.493 22.081L39.957 22.081 39.957 18.927 30.493 18.927z" transform="translate(-60.000000, -1699.000000) translate(60.000000, 1699.000000) translate(60.000000, 4.000000)"/>
                    <path fill="#000" d="M33.648 25.235L39.957 25.235 39.957 22.08 33.648 22.08zM27.339 25.235L30.493 25.235 30.493 22.08 27.339 22.08z" transform="translate(-60.000000, -1699.000000) translate(60.000000, 1699.000000) translate(60.000000, 4.000000)"/>
                    <path fill="#FFF" d="M36.802 24.184L39.956 24.184 39.956 21.029 36.802 21.029z" transform="translate(-60.000000, -1699.000000) translate(60.000000, 1699.000000) translate(60.000000, 4.000000)"/>
                </g>
                <g>
                    <path fill="#FF0" d="M14.721 3.155L14.721 6.309 9.463 6.309 9.463 9.463 6.309 9.463 6.309 14.72 3.154 14.72 3.154 33.648 6.309 33.648 6.309 38.906 9.463 38.906 9.463 42.059 14.721 42.059 14.721 45.215 33.647 45.215 33.647 42.059 38.905 42.059 38.905 38.906 42.059 38.906 42.059 33.648 45.214 33.648 45.214 14.72 42.059 14.72 42.059 9.463 38.905 9.463 38.905 6.309 33.647 6.309 33.647 3.155z" transform="translate(-60.000000, -1699.000000) translate(60.000000, 1699.000000) translate(89.000000, 34.000000)"/>
                    <path fill="#000" d="M14.721 0v3.155H9.463v3.154H6.309v3.155H3.154v5.256H0v18.927h3.154V14.72h3.155V9.464h3.154V6.309h5.258V3.155h18.926V0H14.721zm18.926 6.309h5.258V3.155h-5.258v3.154zm5.258 3.155h3.155V6.309h-3.155v3.155zm3.154 5.256h3.155V9.463h-3.155v5.257zm3.155 0v18.927h-3.155v5.258h-3.154v3.155h-5.258v3.154H14.721v3.154h18.926v-3.154h5.258V42.06h3.154v-3.155h3.155v-5.258h3.154V14.72h-3.154zM3.154 38.905h3.155v-5.258H3.154v5.258zm3.155 3.155h3.155v-3.154H6.309v3.154zm3.154 3.154h5.258v-3.155H9.463v3.155z" transform="translate(-60.000000, -1699.000000) translate(60.000000, 1699.000000) translate(89.000000, 34.000000)"/>
                    <path fill="#000" d="M24.184 31.545h3.154V28.39h-3.154v3.155zm3.154 0V34.7h-3.154v3.154h3.154V34.7h3.155v-3.154h-3.155zM12.618 16.825v3.154H9.464v3.154h3.154v-3.154h5.258v-3.154h-5.258zm5.258 6.308h3.155v-3.154h-3.155v3.154zM30.494 16.825v3.154h-3.155v3.154h3.155v-3.154h5.257v-3.154h-5.257zm5.257 6.308h3.154v-3.154H35.75v3.154z" transform="translate(-60.000000, -1699.000000) translate(60.000000, 1699.000000) translate(89.000000, 34.000000)"/>
                </g>
                <g>
                    <path fill="#FF0" d="M14.721 3.155L14.721 6.309 9.463 6.309 9.463 9.463 6.309 9.463 6.309 14.72 3.154 14.72 3.154 33.648 6.309 33.648 6.309 38.904 9.463 38.904 9.463 42.059 14.721 42.059 14.721 45.215 33.648 45.215 33.648 42.059 38.905 42.059 38.905 38.904 42.059 38.904 42.059 33.648 45.214 33.648 45.214 14.72 42.059 14.72 42.059 9.463 38.905 9.463 38.905 6.309 33.648 6.309 33.648 3.155z" transform="translate(-60.000000, -1699.000000) translate(60.000000, 1699.000000) translate(143.000000, 18.000000)"/>
                    <path fill="#000" d="M14.721 0v3.154H9.463v3.154H6.309v3.155H3.154v5.257H0v18.927h3.154V14.72h3.155V9.463h3.154V6.308h5.258V3.154h18.927V0H14.721zm18.927 6.308h5.257V3.154h-5.257v3.154zm5.257 3.155h3.155V6.309h-3.155v3.154zm3.154 5.257h3.155V9.462h-3.155v5.258zm3.155 0v18.927h-3.155v5.257h-3.154v3.155h-5.257v3.155H14.721v3.154h18.927v-3.154h5.257v-3.155h3.154v-3.155h3.155v-5.257h3.154V14.72h-3.154zM3.154 38.904h3.155v-5.257H3.154v5.257zm3.155 3.155h3.155v-3.155H6.309v3.155zm3.154 3.155h5.258v-3.155H9.463v3.155zM21.029 30.493L27.338 30.493 27.338 27.338 21.029 27.338zM17.875 35.75L21.029 35.75 21.029 30.493 17.875 30.493z" transform="translate(-60.000000, -1699.000000) translate(60.000000, 1699.000000) translate(143.000000, 18.000000)"/>
                    <path fill="#000" d="M27.338 35.75L30.492 35.75 30.492 30.493 27.338 30.493zM21.029 38.904L27.338 38.904 27.338 35.749 21.029 35.749zM29.441 22.081L33.648 22.081 33.648 17.875 29.441 17.875zM14.721 22.081L18.927 22.081 18.927 17.875 14.721 17.875z" transform="translate(-60.000000, -1699.000000) translate(60.000000, 1699.000000) translate(143.000000, 18.000000)"/>
                </g>
                <g>
                    <path fill="#FF0" d="M14.726 3.155L14.726 6.31 9.467 6.31 9.467 9.466 6.311 9.466 6.311 14.725 3.156 14.725 3.156 33.657 6.311 33.657 6.311 38.916 9.467 38.916 9.467 42.071 14.726 42.071 14.726 45.226 33.658 45.226 33.658 42.071 38.917 42.071 38.917 38.916 42.072 38.916 42.072 33.657 45.228 33.657 45.228 14.725 42.072 14.725 42.072 9.466 38.917 9.466 38.917 6.31 33.658 6.31 33.658 3.155z" transform="translate(-60.000000, -1699.000000) translate(60.000000, 1699.000000) translate(223.000000, 0.000000)"/>
                    <path fill="#000" d="M14.726 0v3.155H9.467v3.156H6.311v3.155H3.156v5.259H0v18.932h3.156V14.725h3.155V9.466h3.156V6.311h5.259V3.155h18.932V0H14.726zm18.932 6.311h5.259V3.156h-5.259v3.155zm5.259 3.155h3.155V6.311h-3.155v3.155zm3.155 5.259h3.155V9.466h-3.155v5.259zm3.156 0v18.932h-3.156v5.259h-3.155v3.155h-5.259v3.156H14.726v3.156h18.932v-3.156h5.259v-3.156h3.155v-3.155h3.156v-5.259h3.155V14.725h-3.155zM3.156 38.916H6.31v-5.259H3.156v5.259zm3.155 3.155h3.156v-3.155H6.311v3.155zm3.156 3.156h5.259v-3.155H9.467v3.155z" transform="translate(-60.000000, -1699.000000) translate(60.000000, 1699.000000) translate(223.000000, 0.000000)"/>
                    <path fill="#000" d="M31.554 30.502v3.155H16.83v3.156h14.725v-3.156h3.156v-3.155h-3.156zm-17.88 3.155h3.155v-3.155h-3.155v3.155zM12.623 16.828v3.155H9.468v3.157h3.155v-3.157h5.259v-3.155h-5.26zm5.259 6.312h3.155v-3.156h-3.155v3.156zM30.502 16.828v3.155h-3.155v3.157h3.155v-3.157h5.26v-3.155h-5.26zm5.26 6.312h3.155v-3.156h-3.155v3.156z" transform="translate(-60.000000, -1699.000000) translate(60.000000, 1699.000000) translate(223.000000, 0.000000)"/>
                </g>
                <g>
                    <path fill="#FF0" d="M14.72 3.154L14.72 6.308 9.462 6.308 9.462 9.463 6.308 9.463 6.308 14.721 3.153 14.721 3.153 33.648 6.308 33.648 6.308 38.905 9.462 38.905 9.462 42.058 14.72 42.058 14.72 45.213 33.647 45.213 33.647 42.058 38.904 42.058 38.904 38.905 42.058 38.905 42.058 33.648 45.213 33.648 45.213 14.721 42.058 14.721 42.058 9.463 38.904 9.463 38.904 6.308 33.647 6.308 33.647 3.154z" transform="translate(-60.000000, -1699.000000) translate(60.000000, 1699.000000) translate(250.000000, 31.000000)"/>
                    <path fill="#000" d="M14.72 0v3.154H9.462v3.154H6.308v3.155H3.153v5.257H0v18.927h3.153V14.72h3.155V9.463h3.154V6.308h5.258V3.154h18.927V0H14.72zm18.927 6.308h5.257V3.154h-5.257v3.154zm5.257 3.155h3.155V6.309h-3.155v3.154zm3.154 5.257h3.155V9.462h-3.155v5.258zm3.155 0v18.927h-3.155v5.257h-3.154v3.154h-5.257v3.154H14.72v3.156h18.927v-3.156h5.257v-3.154h3.154v-3.154h3.155v-5.257h3.154V14.72h-3.154zM3.153 38.904h3.155v-5.257H3.153v5.257zm3.155 3.154h3.155v-3.154H6.308v3.154zm3.154 3.154h5.258v-3.154H9.462v3.154z" transform="translate(-60.000000, -1699.000000) translate(60.000000, 1699.000000) translate(250.000000, 31.000000)"/>
                    <path fill="#000" d="M13.668 29.441L13.668 32.595 16.823 32.595 16.823 35.75 19.978 35.75 19.978 32.595 28.389 32.595 28.389 35.75 19.978 35.75 19.978 38.905 28.389 38.905 28.389 35.75 31.543 35.75 31.543 32.595 34.698 32.595 34.698 29.441zM32.594 19.977L35.749 19.977 35.749 16.823 32.594 16.823zM29.44 23.131L32.595 23.131 32.595 19.977 29.44 19.977zM32.594 26.288L35.749 26.288 35.749 23.133 32.594 23.133zM12.617 19.977L15.771 19.977 15.771 16.823 12.617 16.823zM15.771 23.131L18.926 23.131 18.926 19.977 15.771 19.977zM12.617 26.288L15.771 26.288 15.771 23.133 12.617 23.133z" transform="translate(-60.000000, -1699.000000) translate(60.000000, 1699.000000) translate(250.000000, 31.000000)"/>
                </g>
            </g>
        </g>
    </g>
</svg>
