<svg width="335" height="208" viewBox="0 0 335 208" xmlns="http://www.w3.org/2000/svg" xmlns:xlink="http://www.w3.org/1999/xlink">
    <defs>
        <linearGradient x1="88.73%" y1="74.039%" x2="11.27%" y2="25.961%" id="gxk4nwlwkb">
            <stop stop-color="#101213" offset="0%"/>
            <stop stop-color="#272A29" offset="100%"/>
        </linearGradient>
        <linearGradient x1="50%" y1="0%" x2="50%" y2="100%" id="q6omvylyce">
            <stop stop-color="#E1E1E1" offset="0%"/>
            <stop stop-color="#B3B3B3" offset="100%"/>
        </linearGradient>
        <path d="M314.265 207.916H20.735c-11.342 0-20.536-9.194-20.536-20.536V20.62C.2 9.278 9.393.084 20.735.084h293.53c11.342 0 20.536 9.194 20.536 20.536v166.76c0 11.342-9.194 20.536-20.536 20.536" id="852r0gs8ja"/>
        <path d="M33.757 27.644H4.904A4.91 4.91 0 0 1 .002 22.74V4.91A4.91 4.91 0 0 1 4.904.002h28.853a4.91 4.91 0 0 1 4.903 4.905V22.74a4.91 4.91 0 0 1-4.903 4.905" id="lipz4bpxjd"/>
    </defs>
    <g fill="none" fill-rule="evenodd">
        <mask id="kfu0jvpwmc" fill="#fff">
            <use xlink:href="#852r0gs8ja"/>
        </mask>
        <path d="M314.44 208H20.56C9.205 208 0 198.798 0 187.447V20.553C0 9.202 9.205 0 20.56 0h293.88C325.795 0 335 9.202 335 20.553v166.894c0 11.351-9.205 20.553-20.56 20.553" fill="url(#gxk4nwlwkb)" mask="url(#kfu0jvpwmc)"/>
        <text mask="url(#kfu0jvpwmc)" font-family="NanumBarunGothicOTF" font-size="18" fill="#FFF">
                    <tspan x="180" y="95">한 번의 등록으로,</tspan>
                    <tspan x="180" y="121">3초만에 결제하기</tspan>
                </text>
        <path d="M218.228 21.35c4.048 0 7.37 3.439 7.37 7.896 0 4.456-3.322 7.896-7.37 7.896-2.205 0-3.806-.807-4.894-2.183v7.747h-3.897V21.768h3.897v1.765c1.088-1.376 2.689-2.184 4.894-2.184zm-21.126 0v8.822c0 2.062 1.216 3.123 2.937 3.123 1.869 0 3.263-1.122 3.263-3.76V21.35h3.826v15.16h-3.826V34.81c-.89 1.365-2.433 2.123-4.42 2.123-3.144 0-5.606-2.244-5.606-6.277V21.35h3.826zm43.775 0c2.886 0 5.389 1.534 6.596 3.807l-3.269 1.918c-.588-1.21-1.855-1.977-3.356-1.977-2.268 0-3.947 1.682-3.947 4.043 0 2.332 1.679 4.015 3.947 4.015 1.53 0 2.797-.738 3.386-1.949l3.298 1.89c-1.266 2.302-3.77 3.837-6.655 3.837-4.476 0-7.775-3.395-7.775-7.793s3.299-7.792 7.775-7.792zm-56.747-5.773v16.86h7.991v3.92H180v-20.78h4.13zm46.805 5.928v14.851h-3.746V21.505h3.746zm21.628-5.928v12.468l5.169-6.53h4.627l-6.04 7.331 6.22 7.51h-4.507l-5.469-6.738v6.738h-3.876V15.577h3.876zm-35.06 9.451c-2.386 0-4.169 1.705-4.169 4.218 0 2.512 1.783 4.217 4.169 4.217 2.417 0 4.199-1.705 4.199-4.217 0-2.513-1.782-4.218-4.2-4.218zM229.048 15c1.277 0 2.323 1.099 2.323 2.376s-1.046 2.347-2.323 2.347c-1.25 0-2.295-1.07-2.295-2.347S227.8 15 229.048 15zm74.103 7 5.222 11.639 4.5-11.639h1.944l-5.944 15.167c-1.056 2.666-3.111 4.472-5.611 4.277v-1.722c1.805.195 3.055-1.083 3.805-2.889l.362-.86L301.206 22h1.945zm-28.167-.333c3.917 0 7.167 3.166 7.167 7.277 0 4.112-3.25 7.278-7.167 7.278-2.472 0-4.444-1.194-5.611-3.055v8.277h-1.833V22h1.833v2.722c1.167-1.86 3.139-3.055 5.611-3.055zM320 32.316v4.04h-4.04v-4.04H320zm-28.46-10.65c2.472 0 4.444 1.195 5.61 3.056V22h1.834v13.889h-1.833v-2.722c-1.167 1.86-3.14 3.055-5.611 3.055-3.917 0-7.167-3.166-7.167-7.278 0-4.11 3.25-7.277 7.167-7.277zm-16.695 1.778c-3.083 0-5.472 2.417-5.472 5.5 0 3.084 2.389 5.5 5.472 5.5 3.084 0 5.472-2.416 5.472-5.5 0-3.083-2.388-5.5-5.472-5.5zm16.834 0c-3.084 0-5.473 2.417-5.473 5.5 0 3.084 2.39 5.5 5.473 5.5 3.083 0 5.472-2.416 5.472-5.5 0-3.083-2.39-5.5-5.472-5.5z" fill="#FFF" mask="url(#kfu0jvpwmc)"/>
        <text mask="url(#kfu0jvpwmc)" font-family="Gilroy-SemiBold, Gilroy" font-size="10" font-weight="500" fill="#FFF">
                    <tspan x="15" y="23">Only available in Lupick.</tspan>
                    <tspan x="15" y="35">Event Market</tspan>
                </text>
        <g mask="url(#kfu0jvpwmc)">
            <g transform="translate(30.599 80.599)">
                <mask id="4ed5j8lebf" fill="#fff">
                    <use xlink:href="#lipz4bpxjd"/>
                </mask>
                <path d="M33.757 27.644H4.904A4.91 4.91 0 0 1 .002 22.74V4.91A4.91 4.91 0 0 1 4.904.002h28.853a4.91 4.91 0 0 1 4.903 4.905V22.74a4.91 4.91 0 0 1-4.903 4.905" fill="url(#q6omvylyce)" mask="url(#4ed5j8lebf)"/>
            </g>
            <path d="M35.544 108.233c-2.708 0-4.912-2.198-4.912-4.899V85.528c0-2.7 2.204-4.898 4.912-4.898h28.912c2.708 0 4.912 2.197 4.912 4.898v17.806c0 2.7-2.204 4.899-4.912 4.899H35.544zM70 103.334V85.528C70 82.48 67.513 80 64.456 80H35.544C32.487 80 30 82.48 30 85.528v17.806c0 3.048 2.487 5.528 5.544 5.528h28.912c3.057 0 5.544-2.48 5.544-5.528z" fill="#4D4D4D"/>
            <path fill="#4D4D4D" d="M30.36 99.401h39.28v-.599H30.36zM53.473 89.94h16.168v-.599H53.473z"/>
            <path fill="#4D4D4D" d="M53.473 99.162h.599V89.7h-.599zM49.64 99.173l.635-.011c0 .029.048 2.767.052 3.745a604.3 604.3 0 0 1 5.661 5.511l-.448.444c-2.503-2.479-5.718-5.565-5.75-5.596l-.096-.093v-.133c0-.825-.053-3.837-.053-3.867"/>
            <path d="M43.892 108.42a131.63 131.63 0 0 1 5.925-5.666l.423.474a131.06 131.06 0 0 0-5.893 5.634l-.455-.442M46.048 98.922h.599v-9.221h-.6z" fill="#4D4D4D"/>
            <path fill="#4D4D4D" d="M30.36 89.94v-.633H49.7v-3.3L55.786 80l.442.452-5.897 5.82v3.668H30.359"/>
            <path fill="#4D4D4D" d="m43.772 80.571.443-.451 6.025 5.896-.443.451-6.025-5.896"/>
        </g>
    </g>
</svg>
